<!DOCTYPE svg PUBLIC "-//W3C//DTD SVG 1.1//EN" "http://www.w3.org/Graphics/SVG/1.1/DTD/svg11.dtd">
<svg xmlns="http://www.w3.org/2000/svg" id="Layer_1" x="0" y="0" version="1.1" viewBox="0 0 114 32" xml:space="preserve">
  <path fill="#181D23" d="M26.2 9.2h3.2v22.4h-3.2zM27.7 7a2.2 2.2 0 0 1-2-1.3V5 4a2.1 2.1 0 0 1 2.9-1 2.2 2.2 0 0 1 1.1 1 2 2 0 0 1 0 1.7 2.4 2.4 0 0 1-1.1 1 2 2 0 0 1-.9.2M110.3 9.2h3.2v22.4h-3.2zM111.9 7a2.1 2.1 0 0 1-2.1-2 2 2 0 0 1 1.2-2 2.1 2.1 0 0 1 2.4.5l.4.6a2 2 0 0 1-.4 2.3 2.2 2.2 0 0 1-1.5.6M44.5 31.6H42L32.7 9.2H36L43.3 27l7.2-17.7h3.3l-9.3 22.4zM17.6 0v12.4a8.8 8.8 0 0 0-3.3-3.2c-1.1-.7-2.5-1-4-1-1.8 0-3.3.4-4.5 1A9.8 9.8 0 0 0 2.6 12c-.9 1-1.5 2.4-2 3.8a16 16 0 0 0 0 9c.5 1.4 1.1 2.6 2 3.7.8 1 1.9 2 3.2 2.6 1.2.7 2.7 1 4.5 1a8.5 8.5 0 0 0 7.3-3.9v3.5h3.2V0h-3.2zm-1 23.6c-.4 1-.8 2-1.4 2.8A6 6 0 0 1 10 29 6 6 0 0 1 5 26.3c-.6-.8-1-1.8-1.4-2.8A12 12 0 0 1 5 14 7 7 0 0 1 7 12c.9-.6 1.9-.8 3-.8s2.1.2 3 .8a7 7 0 0 1 2.2 2c.6.8 1 1.7 1.3 2.8a12.2 12.2 0 0 1 0 6.8"/>
  <path fill="#FF1400" d="M66.5 15c-2.6 1.2-13.3 6.2-12.2 12.7.8 4.6 6.3 4.4 10.2 4v-.2c-6 .7-8-1.6-8.3-4.2-.4-3.7 4.5-7.2 7.9-8.6l-.5 2.3h1.8l1.1-6z"/>
  <path fill="#181D23" d="M104.9 13.9c-.3-1.1-.8-2-1.5-2.8a6.3 6.3 0 0 0-2.4-1.7c-1-.3-2-.5-3.1-.5-.8 0-1.6 0-2.4.3a7.2 7.2 0 0 0-3.9 2.7l-.4.6-1-1.4A6.3 6.3 0 0 0 88 9.4c-1-.4-2-.5-3.1-.5-.8 0-1.6 0-2.4.3a7.2 7.2 0 0 0-3 1.7l-.1-1.7H76v22.4h3.2V16c0-.4.2-.7.3-1 .3-.8.7-1.4 1.1-1.9.5-.4 1-.8 1.7-1 .6-.3 1.2-.4 2-.4 1.5 0 2.6.5 3.4 1.4.8 1 1.3 2.5 1.3 4.4v14.3h3.2V17.3c0-1 .1-1.8.4-2.5.3-.8.7-1.4 1.2-1.8s1-.9 1.6-1.1c.6-.3 1.3-.4 2-.4 1.5 0 2.6.5 3.4 1.4.9 1 1.3 2.5 1.3 4.4v14.2h3.2V17.4c0-1.3-.2-2.5-.5-3.5M63 8.5c-6 0-8 3.8-8.1 6.3h2.9C58 11.3 64.3 10 67 13c1 1 1 2.4 1 4.4V28c0 3.2 3 3.6 3.1 3.6V16.9c0-.5.4-8.4-8.3-8.4"/>
  <path fill="none" d="M0 0h114v32H0z"/>
</svg>
